<svg version="1.1" xmlns="http://www.w3.org/2000/svg" xmlns:xlink="http://www.w3.org/1999/xlink" viewBox="0 0 172 172"><g transform="translate(10.32,10.32) scale(0.88,0.88)"><g fill="none" fill-rule="nonzero" stroke="none" stroke-width="none" stroke-linecap="butt" stroke-linejoin="none" stroke-miterlimit="10" stroke-dasharray="" stroke-dashoffset="0" font-family="none" font-weight="none" font-size="none" text-anchor="none" style="mix-blend-mode: normal"><g fill="#000000" stroke="#ffffff" stroke-width="24" stroke-linejoin="round"><path d="M96.31328,11.26063c2.35046,2.64427 3.44672,6.03493 3.44672,9.37938c0,3.34444 -1.09626,6.73511 -3.44672,9.37938c-2.35046,2.64427 -6.01328,4.38062 -10.31328,4.38062c-4.3,0 -7.96282,-1.73636 -10.31328,-4.38062c-0.07693,-0.08655 -0.12731,-0.18735 -0.20156,-0.27547l-37.9475,18.97375c0.18613,0.95317 0.30235,1.91786 0.30235,2.88235c0,1.16247 -0.18536,2.3198 -0.45687,3.46015l37.57125,20.86844c0.30646,0.15864 0.58732,0.36248 0.83313,0.60469c2.35336,-2.58911 5.96583,-4.29328 10.2125,-4.29328c4.2239,0 7.81791,1.68732 10.17219,4.25297c0.1939,-0.16634 0.40573,-0.31056 0.63156,-0.43l37.81312,-21.00281c-0.27152,-1.14035 -0.45687,-2.29769 -0.45687,-3.46015c0,-3.34444 1.09626,-6.73511 3.44672,-9.37937c2.35046,-2.64427 6.01328,-4.38063 10.31328,-4.38063c4.3,0 7.96282,1.73636 10.31328,4.38063c2.35046,2.64426 3.44672,6.03493 3.44672,9.37937c0,3.34444 -1.09626,6.73511 -3.44672,9.37937c-2.35046,2.64427 -6.01328,4.38063 -10.31328,4.38063c-4.19354,0 -7.7632,-1.66476 -10.11844,-4.19922l-37.6586,20.91547c-0.27095,0.16001 -0.56258,0.28208 -0.86672,0.36281c0.2881,1.1725 0.48375,2.36394 0.48375,3.56094c0,3.34444 -1.09626,6.73511 -3.44672,9.37937c-1.6757,1.88516 -4.16931,3.03355 -6.93375,3.69531c0.043,0.22584 0.06326,0.45543 0.06047,0.68531v38.53875c2.73836,0.6679 5.2097,1.81035 6.87328,3.68188c0.07693,0.08655 0.12731,0.18735 0.20156,0.27547l37.9475,-18.97375c-0.18613,-0.95317 -0.30235,-1.91786 -0.30235,-2.88235c0,-3.34444 1.09626,-6.73511 3.44672,-9.37937c2.35046,-2.64427 6.01328,-4.38063 10.31328,-4.38063c4.3,0 7.96282,1.73636 10.31328,4.38063c2.35046,2.64426 3.44672,6.03493 3.44672,9.37937c0,3.34444 -1.09626,6.73511 -3.44672,9.37937c-2.35046,2.64427 -6.01328,4.38063 -10.31328,4.38063c-4.3,0 -7.96282,-1.73636 -10.31328,-4.38063c-0.07693,-0.08655 -0.12731,-0.18735 -0.20156,-0.27547l-37.9475,18.97375c0.18613,0.95317 0.30235,1.91786 0.30235,2.88235c0,3.34444 -1.09626,6.73511 -3.44672,9.37937c-2.35046,2.64427 -6.01328,4.38063 -10.31328,4.38063c-4.3,0 -7.96282,-1.73636 -10.31328,-4.38063c-2.35046,-2.64426 -3.44672,-6.03493 -3.44672,-9.37937c0,-0.96449 0.11621,-1.92918 0.30235,-2.88235l-37.9475,-18.98047c-0.07539,0.08955 -0.12341,0.19426 -0.20156,0.28219c-2.35046,2.64427 -6.01328,4.38063 -10.31328,4.38063c-4.3,0 -7.96282,-1.73636 -10.31328,-4.38063c-2.35046,-2.64426 -3.44672,-6.03493 -3.44672,-9.37937c0,-3.34444 1.09626,-6.73511 3.44672,-9.37937c2.35046,-2.64427 6.01328,-4.38063 10.31328,-4.38063c4.3,0 7.96282,1.73636 10.31328,4.38063c2.35046,2.64426 3.44672,6.03493 3.44672,9.37937c0,0.96449 -0.11621,1.92918 -0.30235,2.88235l37.9475,18.97375c0.07425,-0.08812 0.12463,-0.18892 0.20156,-0.27547c1.66358,-1.87153 4.13492,-3.01398 6.87328,-3.68188v-38.53875c-0.00279,-0.22988 0.01746,-0.45947 0.06047,-0.68531c-2.76444,-0.66176 -5.25805,-1.81016 -6.93375,-3.69531c-2.35046,-2.64426 -3.44672,-6.03493 -3.44672,-9.37937c0,-1.2245 0.20224,-2.44357 0.5039,-3.64156c-0.3978,-0.07147 -0.77989,-0.21248 -1.12875,-0.41656l-37.41672,-20.78781c-2.35519,2.5363 -5.9231,4.20594 -10.11844,4.20594c-4.3,0 -7.96282,-1.73636 -10.31328,-4.38063c-2.35046,-2.64426 -3.44672,-6.03493 -3.44672,-9.37937c0,-3.34444 1.09626,-6.73511 3.44672,-9.37937c2.35046,-2.64427 6.01328,-4.38063 10.31328,-4.38063c4.3,0 7.96282,1.73636 10.31328,4.38063c0.07693,0.08655 0.12731,0.18735 0.20156,0.27547l37.9475,-18.97375c-0.18613,-0.95316 -0.30235,-1.91786 -0.30235,-2.88234c0,-3.34444 1.09626,-6.73511 3.44672,-9.37938c2.35046,-2.64427 6.01328,-4.38062 10.31328,-4.38062c4.3,0 7.96282,1.73636 10.31328,4.38062zM80.83328,15.82938c-1.08954,1.22573 -1.71328,2.99507 -1.71328,4.81063c0,1.81556 0.62374,3.58489 1.71328,4.81062c1.08954,1.22573 2.58672,2.06938 5.16672,2.06938c2.58,0 4.07718,-0.84364 5.16672,-2.06938c1.08954,-1.22573 1.71328,-2.99507 1.71328,-4.81062c0,-1.81556 -0.62374,-3.58489 -1.71328,-4.81062c-1.08954,-1.22573 -2.58672,-2.06938 -5.16672,-2.06938c-2.58,0 -4.07718,0.84364 -5.16672,2.06938zM18.91328,46.78937c-1.08954,1.22574 -1.71328,2.99507 -1.71328,4.81063c0,1.81556 0.62374,3.58489 1.71328,4.81063c1.08954,1.22573 2.58672,2.06937 5.16672,2.06937c2.58,0 4.07718,-0.84364 5.16672,-2.06937c1.08954,-1.22574 1.71328,-2.99507 1.71328,-4.81063c0,-1.81556 -0.62374,-3.58489 -1.71328,-4.81063c-1.08954,-1.22573 -2.58672,-2.06937 -5.16672,-2.06937c-2.58,0 -4.07718,0.84364 -5.16672,2.06937zM142.75328,46.78937c-1.08954,1.22574 -1.71328,2.99507 -1.71328,4.81063c0,1.81556 0.62374,3.58489 1.71328,4.81063c1.08954,1.22573 2.58672,2.06937 5.16672,2.06937c2.58,0 4.07718,-0.84364 5.16672,-2.06937c1.08954,-1.22574 1.71328,-2.99507 1.71328,-4.81063c0,-1.81556 -0.62374,-3.58489 -1.71328,-4.81063c-1.08954,-1.22573 -2.58672,-2.06937 -5.16672,-2.06937c-2.58,0 -4.07718,0.84364 -5.16672,2.06937zM80.83328,81.18937c-1.08954,1.22574 -1.71328,2.99507 -1.71328,4.81063c0,1.81556 0.62374,3.58489 1.71328,4.81063c1.08954,1.22573 2.58672,2.06937 5.16672,2.06937c2.58,0 4.07718,-0.84364 5.16672,-2.06937c1.08954,-1.22574 1.71328,-2.99507 1.71328,-4.81063c0,-1.81556 -0.62374,-3.58489 -1.71328,-4.81063c-1.08954,-1.22573 -2.58672,-2.06937 -5.16672,-2.06937c-2.58,0 -4.07718,0.84364 -5.16672,2.06937zM18.91328,115.58937c-1.08954,1.22574 -1.71328,2.99507 -1.71328,4.81063c0,1.81556 0.62374,3.58489 1.71328,4.81063c1.08954,1.22573 2.58672,2.06937 5.16672,2.06937c2.58,0 4.07718,-0.84364 5.16672,-2.06937c1.08954,-1.22574 1.71328,-2.99507 1.71328,-4.81063c0,-1.81556 -0.62374,-3.58489 -1.71328,-4.81063c-1.08954,-1.22573 -2.58672,-2.06937 -5.16672,-2.06937c-2.58,0 -4.07718,0.84364 -5.16672,2.06937zM142.75328,115.58937c-1.08954,1.22574 -1.71328,2.99507 -1.71328,4.81063c0,1.81556 0.62374,3.58489 1.71328,4.81063c1.08954,1.22573 2.58672,2.06937 5.16672,2.06937c2.58,0 4.07718,-0.84364 5.16672,-2.06937c1.08954,-1.22574 1.71328,-2.99507 1.71328,-4.81063c0,-1.81556 -0.62374,-3.58489 -1.71328,-4.81063c-1.08954,-1.22573 -2.58672,-2.06937 -5.16672,-2.06937c-2.58,0 -4.07718,0.84364 -5.16672,2.06937zM80.83328,146.54937c-1.08954,1.22574 -1.71328,2.99507 -1.71328,4.81063c0,1.81556 0.62374,3.58489 1.71328,4.81063c1.08954,1.22573 2.58672,2.06937 5.16672,2.06937c2.58,0 4.07718,-0.84364 5.16672,-2.06937c1.08954,-1.22574 1.71328,-2.99507 1.71328,-4.81063c0,-1.81556 -0.62375,-3.58505 -1.71328,-4.81063c-1.06658,-1.1999 -2.57788,-1.9877 -5.05922,-2.02234c-0.06948,-0.00014 -0.13894,-0.00238 -0.20828,-0.00672c-2.4886,0.03213 -3.99764,0.82723 -5.06594,2.02906z"></path></g><path d="M0,172v-172h172v172z" fill="none" stroke="none" stroke-width="1" stroke-linejoin="miter"></path><g fill="#000000" stroke="none" stroke-width="1" stroke-linejoin="miter"><path d="M86,6.88c-4.3,0 -7.96282,1.73636 -10.31328,4.38062c-2.35046,2.64427 -3.44672,6.03493 -3.44672,9.37938c0,0.96449 0.11621,1.92918 0.30235,2.88234l-37.9475,18.97375c-0.07425,-0.08812 -0.12463,-0.18892 -0.20156,-0.27547c-2.35046,-2.64427 -6.01328,-4.38063 -10.31328,-4.38063c-4.3,0 -7.96282,1.73636 -10.31328,4.38063c-2.35046,2.64426 -3.44672,6.03493 -3.44672,9.37937c0,3.34444 1.09626,6.73511 3.44672,9.37937c2.35046,2.64427 6.01328,4.38063 10.31328,4.38063c4.19534,0 7.76325,-1.66963 10.11844,-4.20594l37.41672,20.78781c0.34886,0.20408 0.73095,0.34509 1.12875,0.41656c-0.30166,1.19799 -0.5039,2.41706 -0.5039,3.64156c0,3.34444 1.09626,6.73511 3.44672,9.37937c1.6757,1.88516 4.16931,3.03355 6.93375,3.69531c-0.043,0.22584 -0.06326,0.45543 -0.06047,0.68531v38.53875c-2.73836,0.6679 -5.2097,1.81035 -6.87328,3.68188c-0.07693,0.08655 -0.12731,0.18735 -0.20156,0.27547l-37.9475,-18.97375c0.18613,-0.95317 0.30235,-1.91786 0.30235,-2.88235c0,-3.34444 -1.09626,-6.73511 -3.44672,-9.37937c-2.35046,-2.64427 -6.01328,-4.38063 -10.31328,-4.38063c-4.3,0 -7.96282,1.73636 -10.31328,4.38063c-2.35046,2.64426 -3.44672,6.03493 -3.44672,9.37937c0,3.34444 1.09626,6.73511 3.44672,9.37937c2.35046,2.64427 6.01328,4.38063 10.31328,4.38063c4.3,0 7.96282,-1.73636 10.31328,-4.38063c0.07816,-0.08792 0.12617,-0.19264 0.20156,-0.28219l37.9475,18.98047c-0.18613,0.95317 -0.30235,1.91786 -0.30235,2.88235c0,3.34444 1.09626,6.73511 3.44672,9.37937c2.35046,2.64427 6.01328,4.38063 10.31328,4.38063c4.3,0 7.96282,-1.73636 10.31328,-4.38063c2.35046,-2.64426 3.44672,-6.03493 3.44672,-9.37937c0,-0.96449 -0.11621,-1.92918 -0.30235,-2.88235l37.9475,-18.97375c0.07425,0.08812 0.12463,0.18892 0.20156,0.27547c2.35046,2.64427 6.01328,4.38063 10.31328,4.38063c4.3,0 7.96282,-1.73636 10.31328,-4.38063c2.35046,-2.64426 3.44672,-6.03493 3.44672,-9.37937c0,-3.34444 -1.09626,-6.73511 -3.44672,-9.37937c-2.35046,-2.64427 -6.01328,-4.38063 -10.31328,-4.38063c-4.3,0 -7.96282,1.73636 -10.31328,4.38063c-2.35046,2.64426 -3.44672,6.03493 -3.44672,9.37937c0,0.96449 0.11621,1.92918 0.30235,2.88235l-37.9475,18.97375c-0.07425,-0.08812 -0.12463,-0.18892 -0.20156,-0.27547c-1.66358,-1.87153 -4.13492,-3.01398 -6.87328,-3.68188v-38.53875c0.00279,-0.22988 -0.01746,-0.45947 -0.06047,-0.68531c2.76444,-0.66176 5.25805,-1.81016 6.93375,-3.69531c2.35046,-2.64426 3.44672,-6.03493 3.44672,-9.37937c0,-1.197 -0.19565,-2.38844 -0.48375,-3.56094c0.30414,-0.08073 0.59576,-0.20281 0.86672,-0.36281l37.6586,-20.91547c2.35524,2.53446 5.9249,4.19922 10.11844,4.19922c4.3,0 7.96282,-1.73636 10.31328,-4.38063c2.35046,-2.64426 3.44672,-6.03493 3.44672,-9.37937c0,-3.34444 -1.09626,-6.73511 -3.44672,-9.37937c-2.35046,-2.64427 -6.01328,-4.38063 -10.31328,-4.38063c-4.3,0 -7.96282,1.73636 -10.31328,4.38063c-2.35046,2.64426 -3.44672,6.03493 -3.44672,9.37937c0,1.16247 0.18536,2.3198 0.45687,3.46015l-37.81312,21.00281c-0.22583,0.11944 -0.43766,0.26366 -0.63156,0.43c-2.35428,-2.56564 -5.94829,-4.25297 -10.17219,-4.25297c-4.24667,0 -7.85914,1.70418 -10.2125,4.29328c-0.24581,-0.24221 -0.52666,-0.44605 -0.83313,-0.60469l-37.57125,-20.86844c0.27152,-1.14035 0.45687,-2.29769 0.45687,-3.46015c0,-0.96449 -0.11621,-1.92918 -0.30235,-2.88235l37.9475,-18.97375c0.07425,0.08812 0.12463,0.18892 0.20156,0.27547c2.35046,2.64427 6.01328,4.38062 10.31328,4.38062c4.3,0 7.96282,-1.73636 10.31328,-4.38062c2.35046,-2.64427 3.44672,-6.03493 3.44672,-9.37937c0,-3.34444 -1.09626,-6.73511 -3.44672,-9.37938c-2.35046,-2.64427 -6.01328,-4.38062 -10.31328,-4.38062zM86,13.76c2.58,0 4.07718,0.84364 5.16672,2.06938c1.08954,1.22573 1.71328,2.99507 1.71328,4.81063c0,1.81556 -0.62374,3.58489 -1.71328,4.81062c-1.08954,1.22573 -2.58672,2.06938 -5.16672,2.06938c-2.58,0 -4.07718,-0.84364 -5.16672,-2.06938c-1.08954,-1.22573 -1.71328,-2.99507 -1.71328,-4.81062c0,-1.81556 0.62374,-3.58489 1.71328,-4.81062c1.08954,-1.22573 2.58672,-2.06938 5.16672,-2.06938zM24.08,44.72c2.58,0 4.07718,0.84364 5.16672,2.06937c1.08954,1.22574 1.71328,2.99507 1.71328,4.81063c0,1.81556 -0.62374,3.58489 -1.71328,4.81063c-1.08954,1.22573 -2.58672,2.06937 -5.16672,2.06937c-2.58,0 -4.07718,-0.84364 -5.16672,-2.06937c-1.08954,-1.22574 -1.71328,-2.99507 -1.71328,-4.81063c0,-1.81556 0.62374,-3.58489 1.71328,-4.81063c1.08954,-1.22573 2.58672,-2.06937 5.16672,-2.06937zM147.92,44.72c2.58,0 4.07718,0.84364 5.16672,2.06937c1.08954,1.22574 1.71328,2.99507 1.71328,4.81063c0,1.81556 -0.62374,3.58489 -1.71328,4.81063c-1.08954,1.22573 -2.58672,2.06937 -5.16672,2.06937c-2.58,0 -4.07718,-0.84364 -5.16672,-2.06937c-1.08954,-1.22574 -1.71328,-2.99507 -1.71328,-4.81063c0,-1.81556 0.62374,-3.58489 1.71328,-4.81063c1.08954,-1.22573 2.58672,-2.06937 5.16672,-2.06937zM86,79.12c2.58,0 4.07718,0.84364 5.16672,2.06937c1.08954,1.22574 1.71328,2.99507 1.71328,4.81063c0,1.81556 -0.62374,3.58489 -1.71328,4.81063c-1.08954,1.22573 -2.58672,2.06937 -5.16672,2.06937c-2.58,0 -4.07718,-0.84364 -5.16672,-2.06937c-1.08954,-1.22574 -1.71328,-2.99507 -1.71328,-4.81063c0,-1.81556 0.62374,-3.58489 1.71328,-4.81063c1.08954,-1.22573 2.58672,-2.06937 5.16672,-2.06937zM24.08,113.52c2.58,0 4.07718,0.84364 5.16672,2.06937c1.08954,1.22574 1.71328,2.99507 1.71328,4.81063c0,1.81556 -0.62374,3.58489 -1.71328,4.81063c-1.08954,1.22573 -2.58672,2.06937 -5.16672,2.06937c-2.58,0 -4.07718,-0.84364 -5.16672,-2.06937c-1.08954,-1.22574 -1.71328,-2.99507 -1.71328,-4.81063c0,-1.81556 0.62374,-3.58489 1.71328,-4.81063c1.08954,-1.22573 2.58672,-2.06937 5.16672,-2.06937zM147.92,113.52c2.58,0 4.07718,0.84364 5.16672,2.06937c1.08954,1.22574 1.71328,2.99507 1.71328,4.81063c0,1.81556 -0.62374,3.58489 -1.71328,4.81063c-1.08954,1.22573 -2.58672,2.06937 -5.16672,2.06937c-2.58,0 -4.07718,-0.84364 -5.16672,-2.06937c-1.08954,-1.22574 -1.71328,-2.99507 -1.71328,-4.81063c0,-1.81556 0.62374,-3.58489 1.71328,-4.81063c1.08954,-1.22573 2.58672,-2.06937 5.16672,-2.06937zM85.89922,144.52031c0.06934,0.00434 0.1388,0.00658 0.20828,0.00672c2.48134,0.03464 3.99264,0.82244 5.05922,2.02234c1.08953,1.22558 1.71328,2.99507 1.71328,4.81063c0,1.81556 -0.62374,3.58489 -1.71328,4.81063c-1.08954,1.22573 -2.58672,2.06937 -5.16672,2.06937c-2.58,0 -4.07718,-0.84364 -5.16672,-2.06937c-1.08954,-1.22574 -1.71328,-2.99507 -1.71328,-4.81063c0,-1.81556 0.62374,-3.58489 1.71328,-4.81063c1.06829,-1.20183 2.57733,-1.99693 5.06594,-2.02906z"></path></g><path d="" fill="none" stroke="none" stroke-width="1" stroke-linejoin="miter"></path><path d="" fill="none" stroke="none" stroke-width="1" stroke-linejoin="miter"></path></g></g></svg>